<svg xmlns="http://www.w3.org/2000/svg" viewBox="203 59 289 208" role="img" aria-label="LIFE OS"><rect x="399.4" y="69.9" width="79.7" height="51.7" rx="25.8" fill="#edff00" stroke="#eaea00" stroke-width="2"/><g transform="translate(0 0)"><path d="M438.5,95.5c0,7.5-4.4,12.2-11.4,12.2s-11.4-4.7-11.4-12.2,4.4-12.3,11.4-12.3,11.4,4.7,11.4,12.3ZM420.7,95.5c0,5,2.5,8.1,6.4,8.1s6.4-3.1,6.4-8.1-2.5-8.1-6.4-8.1-6.4,3.2-6.4,8.1Z"/><path d="M445.6,100.5c.2,2,2.3,3.2,4.9,3.2s4.4-1.3,4.4-3-1.1-2.4-4-3l-3.1-.7c-4.4-.9-6.5-3.2-6.5-6.6s3.8-7.3,9.1-7.3,9,2.8,9.1,7.1h-4.6c-.2-2-1.9-3.2-4.4-3.2s-4.1,1.2-4.1,2.9,1.1,2.3,3.9,2.9l2.9.6c4.7,1,6.8,3.1,6.8,6.7s-3.7,7.5-9.6,7.5-9.3-2.7-9.5-7.2h4.8l-.1.1Z"/></g><g><path d="M239.85,70.91v162.03h14.77v24.62h-39.86V70.91h25.09Z"/><path d="M283.93,70.91v186.65h-25.09V70.91h25.09Z"/><path d="M334.81,70.91v24.62h-17.82v58.62h17.82v24.62h-17.82v78.79h-25.09V70.91h42.91Z"/><path d="M381.47,70.91v24.62h-17.82v58.85h17.82v24.62h-17.82v53.93h17.82v24.62h-42.91V70.91h42.91Z"/></g></svg>